<svg xmlns="http://www.w3.org/2000/svg" viewBox="0 0 1000 1000"><path d="M945.6 134.9c-32.5-9.3-66.4 9.6-75.7 42.1l-4.8 16.8H293.8l-8.6-68.8c-3.8-30.7-29.9-53.7-60.8-53.7H71.2C37.4 71.3 10 98.7 10 132.5s27.4 61.2 61.2 61.2h99L224.7 630c3.8 30.7 29.9 53.7 60.8 53.7h520.6c27.3 0 51.4-18.1 58.9-44.4l122.5-428.7c9.4-32.6-9.4-66.5-41.9-75.7zM500 438.8v-61.2h122.5v61.2H500zM622.5 500v61.2H500V500h122.5zM500 316.3V255h122.5v61.2H500zM301.5 255h137.3v61.2H309.1l-7.6-61.2zm15.3 122.5h122v61.2H324.4l-7.6-61.2zM332.1 500h106.7v61.2h-99l-7.7-61.2zm428 61.3h-76.3V500h93.8l-17.5 61.3zm35-122.5H683.8v-61.2h128.8l-17.5 61.2zm35-122.5H683.8V255h163.8l-17.5 61.3zM255 836.9c0-50.7 41.1-91.9 91.9-91.9 50.7 0 91.9 41.1 91.9 91.9s-41.1 91.9-91.9 91.9c-50.7-.1-91.9-41.2-91.9-91.9zm367.5 0c0-50.7 41.1-91.9 91.9-91.9 50.7 0 91.9 41.1 91.9 91.9s-41.1 91.9-91.9 91.9c-50.7-.1-91.9-41.2-91.9-91.9z"/></svg>