<?xml version="1.0" encoding="utf-8"?>
<!-- Svg Vector Icons : http://www.onlinewebfonts.com/icon -->
<!DOCTYPE svg PUBLIC "-//W3C//DTD SVG 1.1//EN" "http://www.w3.org/Graphics/SVG/1.1/DTD/svg11.dtd">
<svg version="1.1" xmlns="http://www.w3.org/2000/svg" xmlns:xlink="http://www.w3.org/1999/xlink" x="0px" y="0px" viewBox="0 0 1000 1000" enable-background="new 0 0 1000 1000" xml:space="preserve">
<metadata> Svg Vector Icons : http://www.onlinewebfonts.com/icon </metadata>
<g><path d="M945.6,134.9c-32.5-9.3-66.4,9.6-75.7,42.1l-4.8,16.8H293.8l-8.6-68.8c-3.8-30.7-29.9-53.7-60.8-53.7H71.2C37.4,71.3,10,98.7,10,132.5s27.4,61.2,61.2,61.2h99l54.5,436.3c3.8,30.7,29.9,53.7,60.8,53.7h520.6c27.3,0,51.4-18.1,58.9-44.4l122.5-428.7C996.9,178,978.1,144.1,945.6,134.9L945.6,134.9z M500,438.8v-61.2h122.5v61.2H500z M622.5,500v61.2H500V500H622.5z M500,316.3V255h122.5v61.2H500z M301.5,255h137.3v61.2H309.1L301.5,255z M316.8,377.5h122v61.2H324.4L316.8,377.5z M332.1,500h106.7v61.2h-99L332.1,500z M760.1,561.3h-76.3V500h93.8L760.1,561.3L760.1,561.3z M795.1,438.8H683.8v-61.2h128.8L795.1,438.8L795.1,438.8z M830.1,316.3H683.8V255h163.8L830.1,316.3L830.1,316.3z M255,836.9c0-50.7,41.1-91.9,91.9-91.9c50.7,0,91.9,41.1,91.9,91.9s-41.1,91.9-91.9,91.9C296.2,928.7,255,887.6,255,836.9z M622.5,836.9c0-50.7,41.1-91.9,91.9-91.9c50.7,0,91.9,41.1,91.9,91.9s-41.1,91.9-91.9,91.9C663.7,928.7,622.5,887.6,622.5,836.9z"/></g>
</svg>